<svg width="69" height="69" viewBox="0 0 69 69" fill="none" xmlns="http://www.w3.org/2000/svg">
<path d="M26.6892 19.1153C29.0341 17.9227 31.6882 17.25 34.5 17.25C44.0266 17.25 51.75 24.9734 51.75 34.5C51.75 44.0266 44.0266 51.75 34.5 51.75C24.9734 51.75 17.25 44.0266 17.25 34.5C17.25 31.2282 18.1608 28.1704 19.742 25.5633" stroke="url(#paint0_radial_3752_4334)" stroke-opacity="0.3" stroke-width="2" stroke-miterlimit="10"/>
<path d="M22.1479 22.4592C22.6275 21.967 23.1358 21.5035 23.6717 21.0723" stroke="url(#paint1_radial_3752_4334)" stroke-opacity="0.3" stroke-width="2" stroke-miterlimit="10"/>
<path d="M42.5501 8.05039C44.4555 8.05039 46.0001 6.50577 46.0001 4.60039C46.0001 2.69501 44.4555 1.15039 42.5501 1.15039C40.6447 1.15039 39.1001 2.69501 39.1001 4.60039C39.1001 6.50577 40.6447 8.05039 42.5501 8.05039Z" stroke="url(#paint2_radial_3752_4334)" stroke-opacity="0.3" stroke-width="2" stroke-miterlimit="10"/>
<path d="M62.0999 8.05039C64.0053 8.05039 65.5499 6.50577 65.5499 4.60039C65.5499 2.69501 64.0053 1.15039 62.0999 1.15039C60.1945 1.15039 58.6499 2.69501 58.6499 4.60039C58.6499 6.50577 60.1945 8.05039 62.0999 8.05039Z" stroke="url(#paint3_radial_3752_4334)" stroke-opacity="0.3" stroke-width="2" stroke-miterlimit="10"/>
<path d="M62.0999 19.5504C64.0053 19.5504 65.5499 18.0058 65.5499 16.1004C65.5499 14.195 64.0053 12.6504 62.0999 12.6504C60.1945 12.6504 58.6499 14.195 58.6499 16.1004C58.6499 18.0058 60.1945 19.5504 62.0999 19.5504Z" stroke="url(#paint4_radial_3752_4334)" stroke-opacity="0.3" stroke-width="2" stroke-miterlimit="10"/>
<path d="M64.3997 31.0504C66.3051 31.0504 67.8497 29.5058 67.8497 27.6004C67.8497 25.695 66.3051 24.1504 64.3997 24.1504C62.4943 24.1504 60.9497 25.695 60.9497 27.6004C60.9497 29.5058 62.4943 31.0504 64.3997 31.0504Z" stroke="url(#paint5_radial_3752_4334)" stroke-opacity="0.3" stroke-width="2" stroke-miterlimit="10"/>
<path d="M20.7 67.8512C22.6054 67.8512 24.15 66.3066 24.15 64.4012C24.15 62.4958 22.6054 60.9512 20.7 60.9512C18.7946 60.9512 17.25 62.4958 17.25 64.4012C17.25 66.3066 18.7946 67.8512 20.7 67.8512Z" stroke="url(#paint6_radial_3752_4334)" stroke-opacity="0.3" stroke-width="2" stroke-miterlimit="10"/>
<path d="M4.5999 64.4C6.50528 64.4 8.0499 62.8554 8.0499 60.95C8.0499 59.0446 6.50528 57.5 4.5999 57.5C2.69452 57.5 1.1499 59.0446 1.1499 60.95C1.1499 62.8554 2.69452 64.4 4.5999 64.4Z" stroke="url(#paint7_radial_3752_4334)" stroke-opacity="0.3" stroke-width="2" stroke-miterlimit="10"/>
<path d="M8.0501 54.0504C9.95548 54.0504 11.5001 52.5058 11.5001 50.6004C11.5001 48.695 9.95548 47.1504 8.0501 47.1504C6.14472 47.1504 4.6001 48.695 4.6001 50.6004C4.6001 52.5058 6.14472 54.0504 8.0501 54.0504Z" stroke="url(#paint8_radial_3752_4334)" stroke-opacity="0.3" stroke-width="2" stroke-miterlimit="10"/>
<path d="M4.5999 42.5504C6.50528 42.5504 8.0499 41.0058 8.0499 39.1004C8.0499 37.195 6.50528 35.6504 4.5999 35.6504C2.69452 35.6504 1.1499 37.195 1.1499 39.1004C1.1499 41.0058 2.69452 42.5504 4.5999 42.5504Z" stroke="url(#paint9_radial_3752_4334)" stroke-opacity="0.3" stroke-width="2" stroke-miterlimit="10"/>
<path d="M23.1392 61.9618L29.3584 55.7426C31.0075 56.1394 32.729 56.351 34.5 56.351C38.5124 56.351 42.2706 55.27 45.5021 53.3828" stroke="url(#paint10_radial_3752_4334)" stroke-opacity="0.3" stroke-width="2" stroke-miterlimit="10"/>
<path d="M10.4893 48.1613L14.7638 43.8867C13.4091 41.0427 12.6501 37.8607 12.6501 34.5004C12.6501 31.7358 13.163 29.0908 14.1003 26.6562" stroke="url(#paint11_radial_3752_4334)" stroke-opacity="0.3" stroke-width="2" stroke-miterlimit="10"/>
<path d="M44.9889 7.03906L49.4497 11.4999L45.3937 15.556C42.1875 13.7091 38.4649 12.6499 34.4997 12.6499C30.4529 12.6499 26.6625 13.7505 23.4126 15.6675" stroke="url(#paint12_radial_3752_4334)" stroke-opacity="0.3" stroke-width="2" stroke-miterlimit="10"/>
<path d="M53.5875 45.1426C53.2483 45.7509 52.8803 46.3397 52.4858 46.9101" stroke="url(#paint13_radial_3752_4334)" stroke-opacity="0.3" stroke-width="2" stroke-miterlimit="10"/>
<path d="M61.9608 30.0391L56.3189 35.681C56.1947 38.0051 55.7082 40.2327 54.9136 42.3084" stroke="url(#paint14_radial_3752_4334)" stroke-opacity="0.3" stroke-width="2" stroke-miterlimit="10"/>
<path d="M8.0498 60.9502H12.6498L22.5375 51.0625" stroke="url(#paint15_radial_3752_4334)" stroke-opacity="0.3" stroke-width="2" stroke-miterlimit="10"/>
<path d="M53.3623 24.8375L59.6666 18.5332" stroke="url(#paint16_radial_3752_4334)" stroke-opacity="0.3" stroke-width="2" stroke-miterlimit="10"/>
<path d="M48.7622 17.9379L50.1376 16.5625" stroke="url(#paint17_radial_3752_4334)" stroke-opacity="0.3" stroke-width="2" stroke-miterlimit="10"/>
<path d="M52.2124 14.4876L59.661 7.03906" stroke="url(#paint18_radial_3752_4334)" stroke-opacity="0.3" stroke-width="2" stroke-miterlimit="10"/>
<path d="M34 23V27" stroke="url(#paint19_radial_3752_4334)" stroke-opacity="0.3" stroke-width="2" stroke-miterlimit="10"/>
<path d="M29 38.25C29 40.3212 31.2387 42 34 42C36.7613 42 39 40.3212 39 38.25C39 36.1788 36.7613 34.5 34 34.5C31.2387 34.5 29 32.8212 29 30.75C29 28.6788 31.2387 27 34 27C36.7613 27 39 28.6788 39 30.75" stroke="url(#paint20_radial_3752_4334)" stroke-opacity="0.3" stroke-width="2" stroke-miterlimit="10"/>
<path d="M34 42V46" stroke="url(#paint21_radial_3752_4334)" stroke-opacity="0.3" stroke-width="2" stroke-miterlimit="10"/>
<defs>
<radialGradient id="paint0_radial_3752_4334" cx="0" cy="0" r="1" gradientUnits="userSpaceOnUse" gradientTransform="translate(54.28 14.145) rotate(136.111) scale(58.7221)">
<stop offset="0.0782458" stop-color="#FFCE12"/>
<stop offset="0.507247" stop-color="#E02DFF"/>
<stop offset="0.949356" stop-color="#17D9FF"/>
</radialGradient>
<radialGradient id="paint1_radial_3752_4334" cx="0" cy="0" r="1" gradientUnits="userSpaceOnUse" gradientTransform="translate(23.7834 20.9474) rotate(138.796) scale(2.48434 2.46441)">
<stop offset="0.0782458" stop-color="#FFCE12"/>
<stop offset="0.507247" stop-color="#E02DFF"/>
<stop offset="0.949356" stop-color="#17D9FF"/>
</radialGradient>
<radialGradient id="paint2_radial_3752_4334" cx="0" cy="0" r="1" gradientUnits="userSpaceOnUse" gradientTransform="translate(46.5061 0.52939) rotate(136.111) scale(11.7444)">
<stop offset="0.0782458" stop-color="#FFCE12"/>
<stop offset="0.507247" stop-color="#E02DFF"/>
<stop offset="0.949356" stop-color="#17D9FF"/>
</radialGradient>
<radialGradient id="paint3_radial_3752_4334" cx="0" cy="0" r="1" gradientUnits="userSpaceOnUse" gradientTransform="translate(66.0559 0.52939) rotate(136.111) scale(11.7444)">
<stop offset="0.0782458" stop-color="#FFCE12"/>
<stop offset="0.507247" stop-color="#E02DFF"/>
<stop offset="0.949356" stop-color="#17D9FF"/>
</radialGradient>
<radialGradient id="paint4_radial_3752_4334" cx="0" cy="0" r="1" gradientUnits="userSpaceOnUse" gradientTransform="translate(66.0559 12.0294) rotate(136.111) scale(11.7444)">
<stop offset="0.0782458" stop-color="#FFCE12"/>
<stop offset="0.507247" stop-color="#E02DFF"/>
<stop offset="0.949356" stop-color="#17D9FF"/>
</radialGradient>
<radialGradient id="paint5_radial_3752_4334" cx="0" cy="0" r="1" gradientUnits="userSpaceOnUse" gradientTransform="translate(68.3557 23.5294) rotate(136.111) scale(11.7444)">
<stop offset="0.0782458" stop-color="#FFCE12"/>
<stop offset="0.507247" stop-color="#E02DFF"/>
<stop offset="0.949356" stop-color="#17D9FF"/>
</radialGradient>
<radialGradient id="paint6_radial_3752_4334" cx="0" cy="0" r="1" gradientUnits="userSpaceOnUse" gradientTransform="translate(24.656 60.3302) rotate(136.111) scale(11.7444)">
<stop offset="0.0782458" stop-color="#FFCE12"/>
<stop offset="0.507247" stop-color="#E02DFF"/>
<stop offset="0.949356" stop-color="#17D9FF"/>
</radialGradient>
<radialGradient id="paint7_radial_3752_4334" cx="0" cy="0" r="1" gradientUnits="userSpaceOnUse" gradientTransform="translate(8.5559 56.879) rotate(136.111) scale(11.7444)">
<stop offset="0.0782458" stop-color="#FFCE12"/>
<stop offset="0.507247" stop-color="#E02DFF"/>
<stop offset="0.949356" stop-color="#17D9FF"/>
</radialGradient>
<radialGradient id="paint8_radial_3752_4334" cx="0" cy="0" r="1" gradientUnits="userSpaceOnUse" gradientTransform="translate(12.0061 46.5294) rotate(136.111) scale(11.7444)">
<stop offset="0.0782458" stop-color="#FFCE12"/>
<stop offset="0.507247" stop-color="#E02DFF"/>
<stop offset="0.949356" stop-color="#17D9FF"/>
</radialGradient>
<radialGradient id="paint9_radial_3752_4334" cx="0" cy="0" r="1" gradientUnits="userSpaceOnUse" gradientTransform="translate(8.5559 35.0294) rotate(136.111) scale(11.7444)">
<stop offset="0.0782458" stop-color="#FFCE12"/>
<stop offset="0.507247" stop-color="#E02DFF"/>
<stop offset="0.949356" stop-color="#17D9FF"/>
</radialGradient>
<radialGradient id="paint10_radial_3752_4334" cx="0" cy="0" r="1" gradientUnits="userSpaceOnUse" gradientTransform="translate(47.142 52.6107) rotate(159.744) scale(29.2401 19.0086)">
<stop offset="0.0782458" stop-color="#FFCE12"/>
<stop offset="0.507247" stop-color="#E02DFF"/>
<stop offset="0.949356" stop-color="#17D9FF"/>
</radialGradient>
<radialGradient id="paint11_radial_3752_4334" cx="0" cy="0" r="1" gradientUnits="userSpaceOnUse" gradientTransform="translate(15.0773 24.7208) rotate(101.675) scale(25.912 10.2777)">
<stop offset="0.0782458" stop-color="#FFCE12"/>
<stop offset="0.507247" stop-color="#E02DFF"/>
<stop offset="0.949356" stop-color="#17D9FF"/>
</radialGradient>
<radialGradient id="paint12_radial_3752_4334" cx="0" cy="0" r="1" gradientUnits="userSpaceOnUse" gradientTransform="translate(51.3591 6.2625) rotate(162.319) scale(33.5225 19.4158)">
<stop offset="0.0782458" stop-color="#FFCE12"/>
<stop offset="0.507247" stop-color="#E02DFF"/>
<stop offset="0.949356" stop-color="#17D9FF"/>
</radialGradient>
<radialGradient id="paint13_radial_3752_4334" cx="0" cy="0" r="1" gradientUnits="userSpaceOnUse" gradientTransform="translate(53.6683 44.9835) rotate(122.941) scale(2.48526 2.27001)">
<stop offset="0.0782458" stop-color="#FFCE12"/>
<stop offset="0.507247" stop-color="#E02DFF"/>
<stop offset="0.949356" stop-color="#17D9FF"/>
</radialGradient>
<radialGradient id="paint14_radial_3752_4334" cx="0" cy="0" r="1" gradientUnits="userSpaceOnUse" gradientTransform="translate(62.4776 28.9348) rotate(120.841) scale(16.8623 14.8555)">
<stop offset="0.0782458" stop-color="#FFCE12"/>
<stop offset="0.507247" stop-color="#E02DFF"/>
<stop offset="0.949356" stop-color="#17D9FF"/>
</radialGradient>
<radialGradient id="paint15_radial_3752_4334" cx="0" cy="0" r="1" gradientUnits="userSpaceOnUse" gradientTransform="translate(23.5999 50.1726) rotate(146.714) scale(21.2593 19.5214)">
<stop offset="0.0782458" stop-color="#FFCE12"/>
<stop offset="0.507247" stop-color="#E02DFF"/>
<stop offset="0.949356" stop-color="#17D9FF"/>
</radialGradient>
<radialGradient id="paint16_radial_3752_4334" cx="0" cy="0" r="1" gradientUnits="userSpaceOnUse" gradientTransform="translate(60.1289 17.9658) rotate(136.111) scale(10.7305)">
<stop offset="0.0782458" stop-color="#FFCE12"/>
<stop offset="0.507247" stop-color="#E02DFF"/>
<stop offset="0.949356" stop-color="#17D9FF"/>
</radialGradient>
<radialGradient id="paint17_radial_3752_4334" cx="0" cy="0" r="1" gradientUnits="userSpaceOnUse" gradientTransform="translate(50.2385 16.4387) rotate(136.111) scale(2.34105)">
<stop offset="0.0782458" stop-color="#FFCE12"/>
<stop offset="0.507247" stop-color="#E02DFF"/>
<stop offset="0.949356" stop-color="#17D9FF"/>
</radialGradient>
<radialGradient id="paint18_radial_3752_4334" cx="0" cy="0" r="1" gradientUnits="userSpaceOnUse" gradientTransform="translate(60.2072 6.36869) rotate(136.111) scale(12.6781)">
<stop offset="0.0782458" stop-color="#FFCE12"/>
<stop offset="0.507247" stop-color="#E02DFF"/>
<stop offset="0.949356" stop-color="#17D9FF"/>
</radialGradient>
<radialGradient id="paint19_radial_3752_4334" cx="0" cy="0" r="1" gradientUnits="userSpaceOnUse" gradientTransform="translate(35.0733 22.64) rotate(104.568) scale(4.87679 2.37624)">
<stop offset="0.0782458" stop-color="#FFCE12"/>
<stop offset="0.507247" stop-color="#E02DFF"/>
<stop offset="0.949356" stop-color="#17D9FF"/>
</radialGradient>
<radialGradient id="paint20_radial_3752_4334" cx="0" cy="0" r="1" gradientUnits="userSpaceOnUse" gradientTransform="translate(39.7333 25.65) rotate(124.723) scale(21.5351 20.1794)">
<stop offset="0.0782458" stop-color="#FFCE12"/>
<stop offset="0.507247" stop-color="#E02DFF"/>
<stop offset="0.949356" stop-color="#17D9FF"/>
</radialGradient>
<radialGradient id="paint21_radial_3752_4334" cx="0" cy="0" r="1" gradientUnits="userSpaceOnUse" gradientTransform="translate(35.0733 41.64) rotate(104.568) scale(4.87679 2.37624)">
<stop offset="0.0782458" stop-color="#FFCE12"/>
<stop offset="0.507247" stop-color="#E02DFF"/>
<stop offset="0.949356" stop-color="#17D9FF"/>
</radialGradient>
</defs>
</svg>
