<svg width="25" height="19" viewBox="0 0 25 19" fill="none" xmlns="http://www.w3.org/2000/svg">
<path d="M21.1636 1.6782C19.5698 0.959453 17.8615 0.428203 16.075 0.12612C16.0591 0.123066 16.0426 0.125034 16.0279 0.131753C16.0131 0.138471 16.0009 0.149608 15.9927 0.16362C15.774 0.547995 15.5302 1.04904 15.3594 1.44487C13.4647 1.16178 11.5385 1.16178 9.64376 1.44487C9.45349 1.00618 9.23892 0.578437 9.00105 0.16362C8.99299 0.149435 8.98079 0.138047 8.96609 0.130974C8.95139 0.123902 8.93488 0.121481 8.91876 0.124037C7.13335 0.42612 5.42501 0.95737 3.83022 1.67716C3.8165 1.68292 3.80487 1.69273 3.79689 1.70529C0.555221 6.47091 -0.333321 11.1188 0.103137 15.7084C0.104352 15.7197 0.107841 15.7305 0.113392 15.7404C0.118944 15.7502 0.126442 15.7588 0.135429 15.7657C2.0275 17.1432 4.13786 18.1926 6.37814 18.8699C6.39375 18.8747 6.41046 18.8747 6.42607 18.8698C6.44168 18.865 6.45547 18.8556 6.46564 18.8428C6.94772 18.1981 7.37491 17.5141 7.74272 16.798C7.74783 16.7882 7.75077 16.7774 7.75135 16.7664C7.75193 16.7554 7.75013 16.7444 7.74608 16.7341C7.74203 16.7238 7.73582 16.7145 7.72788 16.7069C7.71993 16.6992 7.71043 16.6933 7.70001 16.6897C7.0271 16.4363 6.3751 16.1305 5.75001 15.7751C5.73878 15.7687 5.72932 15.7596 5.72247 15.7486C5.71562 15.7376 5.7116 15.7251 5.71078 15.7122C5.70995 15.6993 5.71234 15.6864 5.71773 15.6746C5.72313 15.6629 5.73136 15.6527 5.74168 15.6449C5.87293 15.548 6.00418 15.447 6.12918 15.3459C6.14043 15.3368 6.15398 15.331 6.16833 15.3292C6.18267 15.3274 6.19725 15.3295 6.21043 15.3355C10.3011 17.173 14.7313 17.173 18.774 15.3355C18.7872 15.3292 18.8019 15.3267 18.8165 15.3284C18.831 15.33 18.8448 15.3358 18.8563 15.3449C18.9813 15.447 19.1115 15.548 19.2438 15.6449C19.2542 15.6525 19.2626 15.6626 19.2681 15.6742C19.2737 15.6859 19.2763 15.6988 19.2756 15.7117C19.275 15.7246 19.2712 15.7371 19.2646 15.7482C19.2579 15.7592 19.2486 15.7685 19.2375 15.7751C18.6146 16.1334 17.9667 16.4365 17.2865 16.6886C17.276 16.6924 17.2665 16.6984 17.2586 16.7062C17.2506 16.7139 17.2444 16.7233 17.2404 16.7336C17.2363 16.744 17.2345 16.7551 17.2351 16.7662C17.2357 16.7773 17.2387 16.7881 17.2438 16.798C17.6188 17.5136 18.0479 18.1949 18.5198 18.8417C18.5296 18.855 18.5433 18.8649 18.5589 18.8702C18.5746 18.8754 18.5915 18.8756 18.6073 18.8709C20.8514 18.1955 22.9652 17.1457 24.8594 15.7657C24.8686 15.7592 24.8764 15.7509 24.8821 15.7412C24.8879 15.7315 24.8915 15.7207 24.8927 15.7095C25.4136 10.4032 24.0198 5.79279 21.1958 1.70737C21.1889 1.69409 21.1775 1.68374 21.1636 1.6782ZM8.35418 12.9136C7.12293 12.9136 6.1073 11.8001 6.1073 10.4345C6.1073 9.06779 7.10314 7.95529 8.35418 7.95529C9.6146 7.95529 10.6208 9.07716 10.6011 10.4345C10.6011 11.8011 9.60522 12.9136 8.35418 12.9136V12.9136ZM16.6615 12.9136C15.4292 12.9136 14.4146 11.8001 14.4146 10.4345C14.4146 9.06779 15.4094 7.95529 16.6615 7.95529C17.9219 7.95529 18.9281 9.07716 18.9083 10.4345C18.9083 11.8011 17.9229 12.9136 16.6615 12.9136V12.9136Z" fill="white"/>
</svg>
