<svg width="26" height="21" viewBox="0 0 26 21" fill="none" xmlns="http://www.w3.org/2000/svg">
<path d="M25.0605 2.41016C24.1367 2.82031 23.1465 3.0957 22.1055 3.2207C23.168 2.58398 23.9844 1.57617 24.3672 0.376953C23.375 0.964844 22.2715 1.39258 21.1016 1.62305C20.1641 0.623047 18.8281 0 17.3496 0C14.5098 0 12.207 2.30078 12.207 5.14062C12.207 5.54297 12.2539 5.93555 12.3418 6.3125C8.06836 6.09766 4.28125 4.05078 1.74414 0.939453C1.30078 1.70117 1.04883 2.58398 1.04883 3.52539C1.04883 5.30859 1.95508 6.88281 3.33594 7.80664C2.49219 7.7793 1.69922 7.54688 1.00586 7.16211C1.00586 7.18359 1.00586 7.20508 1.00586 7.22656C1.00586 9.71875 2.7793 11.7949 5.12891 12.2695C4.69922 12.3867 4.24414 12.4492 3.77539 12.4492C3.44336 12.4492 3.12109 12.418 2.80664 12.3555C3.46289 14.3965 5.36133 15.8867 7.60938 15.9277C5.85156 17.3066 3.63477 18.127 1.22461 18.127C0.808594 18.127 0.400391 18.1035 0 18.0547C2.27344 19.5156 4.97656 20.3652 7.88086 20.3652C17.3379 20.3652 22.5098 12.5313 22.5098 5.73828C22.5098 5.51563 22.5039 5.29102 22.4961 5.07227C23.5 4.34766 24.3711 3.44141 25.0605 2.41016Z" fill="white"/>
</svg>
