<svg width="23" height="16" viewBox="0 0 23 16" fill="none" xmlns="http://www.w3.org/2000/svg">
<path d="M22.085 2.39502C21.9604 1.93125 21.7163 1.50831 21.3769 1.16854C21.0376 0.828777 20.615 0.584095 20.1514 0.458984C18.4448 9.31323e-08 11.604 0 11.604 0C11.604 0 4.76318 -9.31323e-08 3.05664 0.456543C2.59282 0.581248 2.16998 0.825794 1.83058 1.16562C1.49118 1.50545 1.24717 1.9286 1.12305 2.39258C0.666504 4.10156 0.666504 7.66602 0.666504 7.66602C0.666504 7.66602 0.666504 11.2305 1.12305 12.937C1.37451 13.8794 2.1167 14.6216 3.05664 14.873C4.76318 15.332 11.604 15.332 11.604 15.332C11.604 15.332 18.4448 15.332 20.1514 14.873C21.0937 14.6216 21.8335 13.8794 22.085 12.937C22.5415 11.2305 22.5415 7.66602 22.5415 7.66602C22.5415 7.66602 22.5415 4.10156 22.085 2.39502ZM9.43115 10.9375V4.39453L15.0952 7.6416L9.43115 10.9375Z" fill="white"/>
</svg>
