<svg width="25" height="21" viewBox="0 0 25 21" fill="none" xmlns="http://www.w3.org/2000/svg">
<path d="M25 10.6479C25 9.16901 23.752 7.98591 22.1919 8.1338C21.5679 8.1338 20.7878 8.42958 20.3198 8.87324C18.1357 7.54225 15.6396 6.65493 12.9875 6.65493L14.2356 1.03521L18.2917 1.92253C18.2917 2.95775 19.2278 3.69718 20.3198 3.69718C21.4119 3.69718 22.1919 2.80986 22.1919 1.77465C22.1919 0.739436 21.2558 0 20.1638 0C19.3838 0 18.7598 0.443662 18.4477 1.03521L14.0796 0H13.7676C13.6115 0 13.6115 0.147887 13.6115 0.295774L12.0515 6.65493C9.39938 6.65493 6.90328 7.39436 4.71919 8.87324C3.62715 7.83803 1.91108 7.83803 0.819033 8.87324C-0.273011 9.90845 -0.273011 11.5352 0.819033 12.5704C0.975039 12.7183 1.28705 13.0141 1.59906 13.0141V13.7535C1.59906 17.7465 6.43526 21 12.5195 21C18.6037 21 23.4399 17.7465 23.4399 13.7535V13.0141C24.376 12.5704 25 11.6831 25 10.6479V10.6479ZM6.27925 12.5704C6.27925 11.5352 7.21529 10.7958 8.15133 10.7958C9.24337 10.7958 10.0234 11.6831 10.0234 12.5704C10.0234 13.4577 9.08736 14.3451 8.15133 14.3451C7.05928 14.3451 6.27925 13.6056 6.27925 12.5704ZM17.1997 17.4507C15.7956 18.338 14.2356 18.9296 12.5195 18.7817C10.8034 18.7817 9.24337 18.338 7.83931 17.4507C7.68331 17.3028 7.68331 17.007 7.83931 16.7113C7.99532 16.5634 8.30733 16.5634 8.46334 16.7113C9.55538 17.4507 10.9594 17.8944 12.3635 17.7465C13.7676 17.8944 15.1716 17.4507 16.2636 16.7113C16.4197 16.5634 16.7317 16.5634 17.0437 16.7113C17.3557 16.8592 17.3557 17.1549 17.1997 17.4507ZM16.7317 14.3451C15.6396 14.3451 14.8596 13.4577 14.8596 12.5704C14.8596 11.6831 15.7956 10.7958 16.7317 10.7958C17.8237 10.7958 18.6037 11.6831 18.6037 12.5704C18.7597 13.6056 17.8237 14.3451 16.7317 14.3451Z" fill="white"/>
</svg>
