<svg width="23" height="21" viewBox="0 0 23 21" fill="none" xmlns="http://www.w3.org/2000/svg">
<path d="M22.0684 1.15538C21.6934 0.84916 21.1044 0.805346 20.4954 1.04079H20.4944C19.8539 1.28827 2.36392 8.51242 1.65192 8.80757C1.52242 8.8509 0.391416 9.25727 0.507916 10.1625C0.611916 10.9786 1.52092 11.3166 1.63192 11.3556L6.07842 12.8217C6.37342 13.7673 7.46092 17.2561 7.70142 18.0015C7.85142 18.4661 8.09592 19.0766 8.52442 19.2023C8.90042 19.3419 9.27442 19.2143 9.51642 19.0313L12.2349 16.6032L16.6234 19.899L16.7279 19.9592C17.0259 20.0863 17.3114 20.1498 17.5839 20.1498C17.7944 20.1498 17.9964 20.1118 18.1894 20.0357C18.8469 19.7757 19.1099 19.1724 19.1374 19.1041L22.4154 2.69661C22.6154 1.82031 22.3374 1.37446 22.0684 1.15538ZM9.99992 13.4081L8.49992 17.26L6.99992 12.4452L18.4999 4.25998L9.99992 13.4081Z" fill="white"/>
</svg>
