<svg width="127" height="26" viewBox="0 0 127 26" fill="none" xmlns="http://www.w3.org/2000/svg">
<g clip-path="url(#clip0_3298_2585)">
<path fill-rule="evenodd" clip-rule="evenodd" d="M92.0047 19.1592C91.693 21.9208 90.9669 21.8444 90.0858 22.0704C89.2878 22.2744 89.5924 22.7478 90.1111 22.673C90.3037 22.6452 91.7297 22.4976 92.7047 22.4976C94.0703 22.4976 95.3096 22.6223 95.9779 22.6223C96.2567 22.6223 96.622 22.247 95.947 22.0704C95.1664 21.8673 93.2512 22.0704 93.0684 18.7574C92.9353 16.3334 93.1571 8.04532 93.1571 8.04532C93.1571 7.46652 93.2411 7.37904 93.3522 7.37904C93.5461 7.37904 93.7497 7.70564 93.9381 7.92964L105.855 22.5965C107.113 24.019 107.191 23.5918 107.166 22.1612C107.083 17.5442 107.231 4.80137 107.231 4.80137C107.267 2.2936 109.604 3.31184 109.604 2.55848C109.604 2.38435 109.493 2.29688 109.326 2.29688C108.657 2.29688 106.732 2.4988 105.785 2.4988C104.893 2.4988 104.365 2.36841 103.529 2.36841C103.363 2.36841 103.22 2.45588 103.222 2.65904C103.235 3.47207 106.232 2.13133 106.128 6.27292L106.158 18.2714C106.158 18.5028 106.142 18.9589 105.74 18.2714L93.2626 3.06004C93.095 2.85729 92.8449 2.39334 92.5378 2.39334C92.12 2.39334 90.7392 2.4988 90.3215 2.4988C89.8758 2.4988 89.4576 2.38312 89.012 2.38312C88.873 2.38312 88.5681 2.50003 88.5938 2.67253C88.7505 3.68749 92.0178 2.48368 92.0706 7.2274C92.0706 7.2274 92.1386 17.9677 92.0047 19.1592Z" fill="#C0CAD7"/>
<path fill-rule="evenodd" clip-rule="evenodd" d="M111.414 0.0230545C111.039 0.133421 110.442 0.61004 110.196 0.775588C109.914 0.9673 109.919 1.28409 110.064 1.55428C110.766 2.85947 111.46 5.01364 109.728 7.604C109.443 8.03032 109.002 8.15584 109.236 8.332C109.483 8.5184 110.278 7.9964 110.609 7.6788C112.478 5.89616 113.152 2.85947 112.088 0.650508C111.872 0.201276 111.784 -0.0856768 111.414 0.0230545Z" fill="#C0CAD7"/>
<path fill-rule="evenodd" clip-rule="evenodd" d="M113.857 21.1072C113.972 21.6251 116.403 22.6384 118.555 22.6384C125.159 22.6384 126.721 19.1533 126.721 16.7395C126.721 9.10874 115.515 11.9014 115.515 6.49754C115.515 3.85488 117.627 2.73323 119.925 2.73323C122.487 2.73323 124.553 4.32864 125.309 6.28214C125.406 6.53638 125.532 7.1111 125.852 7.1111C126.144 7.1111 126.076 6.90386 126.048 6.6737L125.631 2.65842C125.602 2.34163 125.458 2.25579 125.282 2.25579C124.991 2.25579 124.814 2.76797 124.271 2.66742C123.87 2.59384 123.168 1.80493 120.16 1.77958C116.813 1.75179 113.961 3.75228 113.961 7.40214C113.961 14.6311 124.854 11.8695 124.907 17.1916C124.934 20.2087 122.949 21.7596 120.184 21.7596C116.17 21.7596 114.399 18.7482 114.051 17.4267C113.905 16.8233 113.843 16.4984 113.531 16.5482C113.244 16.5948 113.272 16.9177 113.389 17.4925C113.389 17.4925 113.765 18.7319 113.857 21.1072Z" fill="#C0CAD7"/>
<path fill-rule="evenodd" clip-rule="evenodd" d="M78.7647 23.2168C85.3901 23.2168 89.996 18.9538 89.996 12.3392C89.996 6.25268 85.3313 1.93164 79.2703 1.93164C73.1784 1.93164 68.3643 6.3704 68.3643 12.4863C68.3643 18.6889 72.3154 23.2168 78.7647 23.2168ZM78.5465 3.09492C84.3402 3.09492 87.8292 8.10516 87.8292 13.4554C87.8292 18.8953 84.1826 22.2222 79.8441 22.2222C73.96 22.2222 70.536 17.0714 70.536 11.6332C70.536 6.9876 73.5541 3.09492 78.5465 3.09492Z" fill="#C0CAD7"/>
<path fill-rule="evenodd" clip-rule="evenodd" d="M61.105 12.2069C62.9869 11.3991 64.7529 9.5785 64.7529 7.32702C64.7529 1.75558 58.5394 2.05356 58.1089 2.05356C56.71 2.05356 54.897 2.31354 53.3358 2.31354C51.9647 2.31354 51.3801 2.16107 50.896 2.16107C50.5728 2.16107 50.3574 2.33438 50.3574 2.5077C50.3574 3.48915 53.4697 2.03067 53.3907 5.11398V19.8078C53.3907 22.0008 51.8227 21.8202 51.4861 22.0703C51.3446 22.1762 51.1946 22.5727 51.356 22.5727C52.3778 22.5727 53.5246 22.448 54.5468 22.448C56.7796 22.448 58.1482 22.5555 58.381 22.6193C58.7742 22.7239 58.9554 22.2469 58.5144 22.0961C57.9755 21.9121 55.5576 22.222 55.5158 19.8369V13.7459C55.5158 13.4565 55.3553 12.9512 56.2157 12.9373C58.9276 12.8952 58.876 12.6953 59.3424 13.3727C59.3424 13.3727 64.5181 19.5188 67.3329 22.0834C69.7922 24.3247 72.8297 25.8841 74.7909 25.9777C77.4368 26.1016 78.8629 25.6707 78.8629 25.3241C78.8629 24.6317 76.5545 26.5798 70.2784 21.7098C66.4894 18.7708 61.8278 13.2639 61.105 12.3573C61.0463 12.2857 61.1109 12.2179 61.105 12.2069ZM55.5194 4.03978C55.5194 2.91363 56.1568 3.03422 57.1253 3.03422C59.7624 3.03422 62.4185 4.30752 62.4185 7.82942C62.4185 11.4094 59.6057 11.9563 58.4491 11.9563C57.1849 11.9563 55.5164 12.1006 55.5164 11.5525L55.5194 4.03978Z" fill="#C0CAD7"/>
<path fill-rule="evenodd" clip-rule="evenodd" d="M43.7253 12.1704C45.6476 11.3622 47.6591 9.47946 47.6591 7.22798C47.6591 1.65613 40.9919 2.05713 40.5513 2.05713C39.1232 2.05713 37.5024 2.31465 35.9087 2.31465C34.5076 2.31465 34.0569 2.16668 33.5623 2.16668C33.2328 2.16668 33.0106 2.33999 33.0127 2.51331C33.0169 3.32103 36.013 2.03179 35.9645 5.11469V19.8089C35.9738 22.0715 34.3399 21.9962 33.7697 21.9962C33.1031 21.9962 34.0683 22.6368 34.233 22.6368C35.2768 22.6368 36.0971 22.3727 37.1413 22.3727C39.4214 22.3727 40.9569 22.6045 41.2006 22.6445C41.8363 22.7484 41.9533 22.2861 41.3429 22.1475C40.3575 21.9214 38.1525 21.9459 38.1398 19.5522L38.1348 13.7465C38.1348 13.4576 37.97 12.9384 38.8491 12.9384C41.9258 12.9384 41.6901 12.7892 42.679 14.4063L46.0882 19.5052C47.1328 21.1509 48.2036 22.6229 50.2092 22.6229C50.4567 22.6229 52.3448 22.6597 52.3275 22.313C52.3098 21.9623 52.6781 21.7706 51.8734 21.8957C51.2153 21.9991 49.9574 21.5409 48.6712 19.4766L43.7126 12.3465C43.6345 12.2959 43.7253 12.1704 43.7253 12.1704ZM38.1916 4.07766C38.1916 2.95233 38.7695 3.05289 39.7579 3.00956C42.6298 2.88489 45.2234 4.20765 45.2234 7.72914C45.2234 11.3087 42.618 11.9459 41.437 11.9459C40.1448 11.9459 38.1946 12.1185 38.1946 11.5699L38.1916 4.07766Z" fill="#C0CAD7"/>
<path fill-rule="evenodd" clip-rule="evenodd" d="M29.1465 17.9837C29.4215 18.784 29.6563 19.7095 29.9081 20.3132C30.453 21.62 29.0527 22.0963 28.5082 22.0455C28.0672 22.0055 28.1703 22.7731 28.9539 22.6362C29.685 22.5079 30.6169 22.4224 31.3612 22.4224C32.4894 22.4224 33.4398 22.6362 34.5689 22.6362C34.7606 22.6362 35.3288 22.1711 34.8367 22.0455C34.4878 21.9573 33.4364 21.9699 32.8003 20.881C32.1886 19.8317 31.7607 18.6401 31.3476 17.5434L25.431 2.27404C25.3487 2.03696 25.1561 1.17773 24.8532 1.17773C24.4958 1.17773 24.4135 1.6519 22.7897 5.38637L16.2121 20.5025C15.4957 22.1923 14.0215 21.6393 14.0215 22.2618C14.0215 22.44 14.2851 22.6362 14.4515 22.6362C15.1662 22.6362 15.9886 22.4482 16.7312 22.4482C17.5021 22.4482 18.2734 22.4768 19.2867 22.6387C19.974 22.7478 20.1337 22.1809 19.5334 22.0455C18.7554 21.8702 17.5878 21.5277 17.7526 20.2355C17.9769 18.4815 19.5719 15.4093 19.5719 15.4093C19.8477 14.7875 20.491 14.5811 21.0131 14.5811H27.0687C27.8387 14.5811 27.9904 14.8705 28.2662 15.5527L29.1465 17.9837ZM23.9464 5.38585C24.1111 5.03023 24.2488 5.03023 24.3865 5.38585L27.25 12.9329C27.3877 13.3191 27.4156 13.5264 26.8094 13.5264H21.0512C20.6939 13.5264 20.5004 13.4079 20.6939 12.9934L23.9464 5.38585Z" fill="#C0CAD7"/>
<path fill-rule="evenodd" clip-rule="evenodd" d="M2.47005 19.3067C2.47005 21.5561 1.4753 21.8231 1.15511 21.911C0.632603 22.0835 0.0661584 21.9367 0.116847 22.4371C0.144303 22.6954 0.842534 22.6521 0.987421 22.6521C2.32475 22.6521 3.16491 22.5883 4.5014 22.5883C5.48898 22.5883 7.94314 22.8397 8.98815 22.8397C14.653 22.8397 15.8552 18.6969 15.8623 16.5369C15.875 12.4321 11.2974 11.8255 11.2974 11.3931C11.2974 11.1915 14.1503 10.094 14.1503 7.15169C14.1503 5.01633 12.7531 2.22897 7.64028 2.22897C5.31662 2.22897 4.84648 2.44234 3.68404 2.44234C2.52243 2.44234 0.893647 2.16602 0.312842 2.16602C-0.0360634 2.16602 -0.20587 2.54208 0.41633 2.79388C0.966724 3.01584 2.47005 2.9206 2.47005 5.1132V19.3067ZM4.55787 12.5975C4.55787 12.3375 4.41257 11.9332 6.6496 11.9332C13.3308 11.9332 13.4469 15.7576 13.4469 17.6032C13.4469 19.3335 12.8661 21.9945 8.40514 22.0444C4.28077 22.0906 4.55787 21.2665 4.55787 19.1892V12.5975ZM4.55918 5.34402C4.55918 3.67054 4.41472 3.2164 6.24415 3.17961C9.74292 3.10971 12.214 4.99984 12.1426 8.11421C12.1029 9.80649 10.9493 11.2764 7.12275 11.2175C4.50933 11.1767 4.55918 11.0271 4.55918 10.1029V5.34402Z" fill="#C0CAD7"/>
</g>
<defs>
<clipPath id="clip0_3298_2585">
<rect width="127" height="26" fill="white"/>
</clipPath>
</defs>
</svg>
