<svg width="165" height="26" viewBox="0 0 165 26" fill="none" xmlns="http://www.w3.org/2000/svg">
<path fill-rule="evenodd" clip-rule="evenodd" d="M0 0.862755H4.09178V25.1435H0V0.862755ZM33.1516 16.3913L16.5289 0.488464V25.143H20.4632V9.34688L37.0859 25.5183V0.862755H33.1516V16.3913ZM58.44 11.6186L54.5459 10.1946C52.5391 9.48392 51.3975 8.77109 51.3975 6.99226C51.3975 5.01517 53.2082 4.06563 55.6468 4.06563C58.4791 4.06563 60.683 5.13326 62.6887 6.67592V2.44388C60.7618 1.17909 58.283 0.466797 55.568 0.466797C51.1221 0.466797 47.4241 2.79976 47.4241 7.0708C47.4241 11.0645 49.8632 12.8049 53.0893 13.9911L56.5907 15.257C58.7545 16.0874 59.9743 16.8392 59.9743 18.7367C59.9743 20.9115 58.0462 21.9005 55.2921 21.9005C52.4604 21.9005 49.8236 20.873 47.6202 19.0925V23.4031C49.3125 24.5899 52.0661 25.5389 55.2921 25.5389C60.2111 25.5389 63.9477 23.0863 63.9477 18.6576C63.9477 15.1384 62.2173 13.0026 58.44 11.6186ZM73.1657 0.862755H77.257V25.1435H73.1657V0.862755ZM99.1634 0.863297H89.8977V25.1435H99.1634C106.285 25.1435 110.888 20.398 110.888 13.0026C110.888 5.6083 106.284 0.863297 99.1634 0.863297ZM99.0059 21.4667H93.99V4.50113H99.0059C104.08 4.50113 106.795 7.78309 106.795 13.0026C106.795 18.1825 104.08 21.4667 99.0059 21.4667ZM120.174 25.1435H134.828V21.4667H124.187V13.9418H133.726V10.343H124.187V4.50059H134.828V0.862755H120.174V25.1435ZM156.063 15.1384C159.88 14.5453 161.679 12.2118 161.679 8.13842C161.679 3.39342 158.454 0.862755 153.456 0.862755H144.693V25.1435H148.784V15.2965H151.696L160.106 25.1435H164.748L156.063 15.1384ZM148.785 11.8559V4.42151H153.378C156.092 4.42151 157.627 5.88455 157.627 8.13842C157.627 10.3928 156.092 11.8559 153.378 11.8559H148.785Z" fill="#C0CAD7"/>
</svg>
