<svg width="111" height="26" viewBox="0 0 111 26" fill="none" xmlns="http://www.w3.org/2000/svg">
<g clip-path="url(#clip0_3298_2577)">
<path d="M16.0859 18.9188L11.4612 20.9313V20.73C10.5694 20.9585 9.58162 21.0902 8.64599 21.1325C4.29669 21.0902 0.844511 18.8118 0.804336 16.1007V15.0943C2.23284 17.1734 5.14079 18.5665 8.64599 18.5162C9.83178 18.5665 11.0449 18.3786 12.0642 18.1136L12.4664 17.1072C11.2574 17.4682 9.93781 17.7194 8.64599 17.711C4.29669 17.7194 0.844511 15.4411 0.804336 12.6796V11.8745C2.23284 13.7964 5.13458 15.1899 8.64599 15.0947C10.2257 15.1899 11.7706 14.8573 13.0694 14.2895L13.2707 13.2831C12.0017 13.9532 10.357 14.3424 8.64599 14.2895C4.29669 14.3424 0.844511 12.064 0.804336 9.2581V8.45294C2.23284 10.4197 5.14079 11.8128 8.64599 11.8745C10.6382 11.8128 12.5268 11.2857 14.0751 10.4654L14.2763 9.25768C12.871 10.3002 10.8196 10.972 8.64599 11.0693C4.29669 10.972 0.844925 8.69323 0.804336 5.83658C0.844511 3.11958 4.29669 0.841226 8.64599 0.805161C11.2388 0.841226 13.6468 1.75123 15.0807 3.22023L15.2203 3.45297L16.2342 3.45716L16.0859 3.22023C14.6599 1.28029 11.8078 0 8.64599 0C3.83364 0 0 2.65494 0 5.83658V16.302C0.168985 19.4077 3.91524 21.9373 8.64599 21.9373C11.7706 21.9373 14.5787 20.7073 16.0859 18.9188Z" fill="#C0CAD7"/>
<path d="M14.2046 26L15.8282 19.0937L11.1608 21.125L14.002 9.14071H8.52246L9.9431 3.25004H27.3949L25.9743 9.14071H20.2926L19.0749 12.3907L25.3655 9.75004L14.2046 26ZM17.0459 17.6716L16.2341 21.7344L22.9305 11.5784L17.4513 14.0161L19.8867 8.32842H25.3655L26.3802 4.06274H10.5519L9.5372 8.32842H15.0164L12.3781 19.7034L17.0459 17.6725V17.6716ZM39.4177 7.14039C39.3697 7.81387 39.1241 8.34394 38.6809 8.73142C38.2377 9.11849 37.6537 9.31181 36.9289 9.31181C36.1366 9.31181 35.5124 9.04174 35.0585 8.5012C34.6041 7.96107 34.3768 7.21923 34.3768 6.2761V5.89323C34.3768 5.29145 34.4815 4.76097 34.6911 4.3022C34.9007 3.84384 35.2002 3.49158 35.5891 3.24668C35.9784 3.00136 36.4307 2.87891 36.9463 2.87891C37.6595 2.87891 38.2344 3.07265 38.6706 3.45971C39.1063 3.84636 39.3581 4.38984 39.4264 5.08933H38.1524C38.1214 4.68507 38.0099 4.39194 37.819 4.20994C37.6276 4.02794 37.3369 3.93694 36.9463 3.93694C36.5214 3.93694 36.2037 4.09084 35.9929 4.39907C35.7817 4.70729 35.6736 5.18536 35.6678 5.83326V6.30629C35.6678 6.98271 35.7692 7.47713 35.9713 7.78955C36.1743 8.10197 36.4932 8.25839 36.9293 8.25839C37.3228 8.25839 37.6165 8.16739 37.8103 7.98539C38.0046 7.80339 38.1156 7.52158 38.1437 7.14039H39.4177ZM45.9966 6.23752C45.9966 6.85397 45.8889 7.3941 45.6735 7.85833C45.4585 8.32297 45.1508 8.6811 44.7499 8.93355C44.3494 9.18558 43.89 9.31181 43.3719 9.31181C42.8596 9.31181 42.4023 9.18726 42.0001 8.93774C41.5984 8.68823 41.2865 8.3322 41.0658 7.86923C40.845 7.40626 40.7332 6.87368 40.7303 6.27149V5.962C40.7303 5.34555 40.84 4.80333 41.0595 4.33491C41.2791 3.86607 41.5889 3.50626 41.9898 3.25507C42.3903 3.00429 42.8484 2.87891 43.3636 2.87891C43.8789 2.87891 44.3369 3.00471 44.7374 3.25507C45.138 3.50626 45.4482 3.86607 45.6673 4.33449C45.8868 4.80333 45.9966 5.34429 45.9966 5.95781V6.23752ZM44.7056 5.95362C44.7056 5.29691 44.5896 4.79829 44.3576 4.45694C44.1253 4.116 43.7939 3.94533 43.3636 3.94533C42.9358 3.94533 42.6061 4.11391 42.3737 4.45065C42.1418 4.78739 42.0242 5.28097 42.0217 5.93223V6.23752C42.0217 6.87662 42.1376 7.37271 42.3696 7.72497C42.6015 8.07765 42.9358 8.2542 43.3719 8.2542C43.7993 8.2542 44.1278 8.08436 44.3576 7.74468C44.5867 7.405 44.7027 6.90975 44.7056 6.25891V5.95362ZM48.9393 9.22584H47.6653V2.96487H48.9393V9.22584ZM55.8114 9.22584H54.5369L52.0568 5.10652V9.22584H50.7828V2.96487H52.0568L54.5415 7.093V2.96487H55.8114V9.22584ZM62.1185 4.00991H60.2244V9.22584H58.9504V4.00991H57.0816V2.96487H62.1185V4.00991ZM67.2278 6.51262H64.7816V8.18962H67.6523V9.22584H63.5072V2.96487H67.644V4.00991H64.7816V5.50197H67.2278V6.51262ZM70.3366 8.18962H73.042V9.22584H69.0626V2.96487H70.3366V8.19004V8.18962ZM78.1555 6.5122H75.7094V8.18962H78.58V9.22584H74.4353V2.96487H78.5717V4.00991H75.7094V5.50197H78.1555V6.51262V6.5122ZM84.883 8.43452C84.6535 8.71255 84.3292 8.92852 83.9101 9.08158C83.4914 9.23507 83.0271 9.31223 82.5172 9.31223C81.9821 9.31223 81.5128 9.19355 81.1094 8.95704C80.706 8.72052 80.3945 8.37749 80.175 7.9271C79.9555 7.47713 79.8433 6.94833 79.8375 6.34068V5.91462C79.8375 5.28978 79.9414 4.74881 80.1498 4.29171C80.3577 3.83462 80.658 3.48445 81.0498 3.24249C81.442 3.0001 81.9013 2.87891 82.4282 2.87891C83.1613 2.87891 83.7349 3.05587 84.1482 3.41023C84.5616 3.76416 84.8064 4.27955 84.883 4.95597H83.6425C83.5862 4.59742 83.4607 4.33533 83.2669 4.16884C83.073 4.00278 82.8059 3.91975 82.4663 3.91975C82.033 3.91975 81.7033 4.08455 81.4764 4.41416C81.2502 4.74378 81.1355 5.234 81.1326 5.88484V6.28449C81.1326 6.9412 81.256 7.43687 81.5021 7.77236C81.7485 8.10784 82.1097 8.27558 82.5851 8.27558C83.0635 8.27558 83.4052 8.17242 83.6086 7.9661V6.88668H82.4493V5.93642H84.883V8.43452ZM88.8666 6.93407H87.8518V9.22584H86.5774V2.96487H88.8753C89.6055 2.96487 90.1692 3.12968 90.5651 3.45971C90.9619 3.78933 91.1599 4.25481 91.1599 4.857C91.1599 5.28433 91.0688 5.64036 90.8861 5.92552C90.7035 6.21068 90.4264 6.43797 90.0557 6.60697L91.3935 9.16545V9.22584H90.0259L88.8666 6.93407ZM87.8518 5.88904H88.879C89.1992 5.88904 89.4468 5.80642 89.6225 5.64162C89.7981 5.47681 89.8859 5.24994 89.8859 4.96016C89.8859 4.66494 89.803 4.43262 89.6374 4.26362C89.4717 4.09462 89.2178 4.00991 88.8753 4.00991H87.8514V5.88904H87.8518ZM96.282 7.93549H94.048L93.6234 9.22584H92.2686L94.5706 2.96487H95.7511L98.0655 9.22584H96.7111L96.282 7.93591V7.93549ZM94.3921 6.89129H95.9379L95.1609 4.5471L94.3921 6.89129ZM100.58 7.02004V9.22584H99.306V2.96487H101.718C102.182 2.96487 102.591 3.05084 102.943 3.2232C103.296 3.39513 103.567 3.6392 103.757 3.95623C103.946 4.27284 104.041 4.63349 104.041 5.03774C104.041 5.65126 103.834 6.13478 103.419 6.48871C103.004 6.84307 102.43 7.02004 101.697 7.02004H100.58ZM100.58 5.975H101.718C102.055 5.975 102.312 5.89491 102.489 5.73429C102.666 5.57368 102.754 5.34429 102.754 5.04655C102.754 4.73958 102.665 4.49133 102.487 4.3022C102.309 4.11349 102.062 4.01578 101.748 4.00991H100.58V5.975ZM110.611 9.22584H109.337V6.54281H106.853V9.22584H105.579V2.96487H106.853V5.50197H109.337V2.96487H110.611V9.22584Z" fill="#C0CAD7"/>
<path d="M37.8809 15.0267H36.5033V18.8722H35.7421V15.0267H34.377V14.4002H37.8809V15.0267ZM39.3637 15.9115C39.6043 15.6289 39.9087 15.4876 40.2769 15.4876C40.9769 15.4876 41.3314 15.8918 41.3414 16.7007V18.8722H40.6046V16.7284C40.6046 16.499 40.5557 16.3367 40.4575 16.2416C40.3594 16.1464 40.2152 16.099 40.0251 16.099C39.7298 16.099 39.5095 16.2319 39.3637 16.4978V18.8722H38.6264V14.1544H39.3637V15.9115ZM43.7805 18.9334C43.3133 18.9334 42.9347 18.7845 42.6444 18.4868C42.3545 18.189 42.2091 17.7919 42.2091 17.2967V17.2044C42.2091 16.8727 42.2724 16.5762 42.3988 16.3154C42.5156 16.0652 42.7001 15.8537 42.931 15.7056C43.1599 15.5601 43.4253 15.4844 43.6956 15.4876C44.1425 15.4876 44.4879 15.6318 44.7314 15.9203C44.975 16.2093 45.0971 16.6177 45.0971 17.1461V17.4472H42.9521C42.9745 17.7215 43.0652 17.9383 43.2238 18.098C43.3824 18.2578 43.5821 18.3379 43.8227 18.3379C44.1607 18.3379 44.4357 18.1995 44.6482 17.9227L45.0458 18.3069C44.914 18.5059 44.7322 18.6656 44.519 18.7694C44.2994 18.8785 44.0534 18.9334 43.7805 18.9334ZM43.6927 16.086C43.4901 16.086 43.3269 16.1581 43.2027 16.3015C43.0784 16.4445 42.9989 16.6441 42.9645 16.9004H44.3686V16.845C44.3529 16.5951 44.287 16.4064 44.1719 16.2785C44.0563 16.1506 43.8969 16.0864 43.6927 16.0864V16.086ZM47.9724 18.8722V16.1019H47.4716V15.5488H47.9724V15.2447C47.9724 14.8761 48.0734 14.5914 48.2756 14.3909C48.4781 14.1901 48.761 14.0898 49.125 14.0898C49.2547 14.0898 49.3922 14.1083 49.5376 14.1452L49.5193 14.7289C49.4263 14.7114 49.3319 14.7031 49.2373 14.7042C48.8852 14.7042 48.7096 14.8875 48.7096 15.254V15.5488H49.3764V16.1019H48.7096V18.8722H47.9724ZM52.1523 18.5467C51.9361 18.8047 51.6283 18.9334 51.2299 18.9334C50.8741 18.9334 50.6045 18.8281 50.4218 18.6172C50.2388 18.4063 50.1472 18.1014 50.1472 17.7017V15.5488H50.8845V17.6925C50.8845 18.1144 51.0572 18.3257 51.403 18.3257C51.7609 18.3257 52.0028 18.1957 52.1278 17.9357V15.5488H52.8651V18.8722H52.1705L52.1523 18.5467ZM54.7881 14.7411V15.5488H55.368V16.1019H54.7881V17.9567C54.7881 18.0838 54.813 18.1756 54.8627 18.2318C54.9124 18.288 55.0006 18.3161 55.1277 18.3161C55.2131 18.3161 55.2988 18.306 55.3858 18.2855V18.8629C55.2279 18.9085 55.0646 18.9322 54.9004 18.9334C54.3342 18.9334 54.0513 18.6172 54.0513 17.9844V16.1015H53.5112V15.5488H54.0509V14.7415H54.7881V14.7411ZM58.1674 18.5467C57.9508 18.8047 57.6435 18.9334 57.245 18.9334C56.8888 18.9334 56.6196 18.8281 56.4365 18.6172C56.2535 18.4063 56.1619 18.1014 56.1619 17.7017V15.5488H56.8992V17.6925C56.8992 18.1144 57.0723 18.3257 57.4181 18.3257C57.776 18.3257 58.0175 18.1957 58.143 17.9357V15.5488H58.8802V18.8722H58.1856L58.1674 18.5467ZM61.598 16.2307C61.4988 16.2142 61.3983 16.206 61.2978 16.2063C60.9598 16.2063 60.7324 16.3372 60.6152 16.5993V18.8722H59.878V15.5488H60.5821L60.5999 15.9203C60.778 15.6318 61.0248 15.4876 61.34 15.4876C61.4452 15.4876 61.5322 15.5018 61.6009 15.5303L61.598 16.2307ZM63.7 18.9334C63.2328 18.9334 62.8542 18.7845 62.5639 18.4868C62.274 18.189 62.1286 17.7919 62.1286 17.2967V17.2044C62.1286 16.8727 62.192 16.5762 62.3183 16.3154C62.4351 16.0652 62.6197 15.8537 62.8505 15.7056C63.0794 15.5601 63.3448 15.4844 63.6151 15.4876C64.062 15.4876 64.4074 15.6318 64.651 15.9203C64.8945 16.2093 65.0167 16.6177 65.0167 17.1461V17.4472H62.8716C62.894 17.7215 62.9847 17.9383 63.1433 18.098C63.302 18.2578 63.5016 18.3379 63.7422 18.3379C64.0802 18.3379 64.3552 18.1995 64.5677 17.9227L64.9653 18.3069C64.8336 18.5059 64.6517 18.6656 64.4385 18.7694C64.219 18.8785 63.9729 18.9334 63.7 18.9334ZM63.6122 16.086C63.4097 16.086 63.2465 16.1581 63.1222 16.3015C62.998 16.4445 62.9184 16.6441 62.8841 16.9004H64.2881V16.845C64.2724 16.5951 64.2065 16.4064 64.0914 16.2785C63.9758 16.1506 63.8164 16.0864 63.6122 16.0864V16.086ZM67.4943 17.1797C67.4943 16.8542 67.5581 16.5611 67.6856 16.2998C67.8026 16.0503 67.9892 15.841 68.2224 15.6977C68.4531 15.5576 68.7178 15.4876 69.0176 15.4876C69.46 15.4876 69.8195 15.6318 70.0958 15.9203C70.3716 16.2093 70.5211 16.5921 70.5431 17.0694L70.5464 17.2442C70.5464 17.5717 70.4843 17.8649 70.36 18.1228C70.244 18.3713 70.0581 18.5796 69.8257 18.7216C69.5942 18.8629 69.3266 18.9334 69.0234 18.9334C68.5604 18.9334 68.1897 18.7774 67.9114 18.4654C67.6339 18.153 67.4943 17.7366 67.4943 17.2166V17.1797ZM68.2315 17.2442C68.2315 17.5864 68.3015 17.854 68.4411 18.0473C68.5803 18.241 68.7745 18.3379 69.0234 18.3379C69.2719 18.3379 69.4658 18.2394 69.6041 18.0427C69.7429 17.8464 69.812 17.5587 69.812 17.1797C69.812 16.8442 69.7408 16.5779 69.5983 16.3812C69.4554 16.1845 69.262 16.0864 69.0172 16.0864C68.777 16.0864 68.5857 16.1828 68.444 16.3766C68.3024 16.5703 68.2315 16.8593 68.2315 17.2447V17.2442ZM71.6779 18.8722V16.1019H71.1772V15.5488H71.6779V15.2447C71.6779 14.8761 71.779 14.5914 71.9811 14.3909C72.1836 14.1901 72.4665 14.0898 72.8306 14.0898C72.9602 14.0898 73.0977 14.1083 73.2431 14.1452L73.2249 14.7289C73.132 14.7114 73.0377 14.7031 72.9432 14.7042C72.5912 14.7042 72.4152 14.8875 72.4152 15.254V15.5488H73.0824V16.1019H72.4152V18.8722H71.6779ZM76.3581 15.5488L76.3793 15.896C76.61 15.6234 76.9256 15.4876 77.3257 15.4876C77.7647 15.4876 78.065 15.6574 78.2269 15.9975C78.4655 15.6574 78.801 15.4876 79.2338 15.4876C79.5958 15.4876 79.8654 15.5886 80.0423 15.7916C80.2191 15.9941 80.3098 16.2931 80.314 16.6882V18.8722H79.5767V16.71C79.5767 16.499 79.5312 16.3443 79.44 16.2462C79.3489 16.1476 79.1986 16.0986 78.9886 16.0986C78.8204 16.0986 78.6833 16.1443 78.5773 16.2353C78.4692 16.3292 78.3915 16.4538 78.3541 16.593L78.3574 18.8722H77.6201V16.6852C77.6098 16.2944 77.4131 16.0986 77.0287 16.0986C76.7334 16.0986 76.5238 16.2202 76.4008 16.4642V18.8722H75.6636V15.5488H76.3581ZM81.1813 17.1801C81.1813 16.8542 81.245 16.5611 81.3722 16.2998C81.4893 16.0503 81.676 15.8409 81.9094 15.6977C82.1397 15.5576 82.4047 15.4876 82.7042 15.4876C83.1469 15.4876 83.5065 15.6318 83.7823 15.9203C84.0586 16.2093 84.2077 16.5921 84.2296 17.0694L84.2329 17.2442C84.2329 17.5717 84.1708 17.8649 84.0465 18.1228C83.9305 18.3713 83.7447 18.5796 83.5123 18.7216C83.2807 18.8629 83.0136 18.9334 82.71 18.9334C82.2469 18.9334 81.8762 18.7774 81.5983 18.4654C81.3204 18.153 81.1813 17.7366 81.1813 17.2166V17.1797V17.1801ZM81.9185 17.2442C81.9185 17.5864 81.9881 17.854 82.1277 18.0473C82.2672 18.241 82.4615 18.3379 82.71 18.3379C82.9585 18.3379 83.1523 18.2394 83.2911 18.0427C83.4294 17.8464 83.499 17.5587 83.499 17.1797C83.499 16.8442 83.4273 16.5779 83.2849 16.3812C83.1424 16.1845 82.9486 16.0864 82.7042 16.0864C82.4636 16.0864 82.2722 16.1828 82.1306 16.3766C81.9893 16.5703 81.9185 16.8593 81.9185 17.2447V17.2442ZM85.789 15.5488L85.8101 15.9329C86.0528 15.636 86.3713 15.4876 86.7656 15.4876C87.449 15.4876 87.7969 15.8838 87.8094 16.676V18.8722H87.0721V16.7192C87.0721 16.5083 87.027 16.3518 86.9371 16.2508C86.8472 16.1493 86.7002 16.0986 86.4956 16.0986C86.1986 16.0986 85.977 16.2348 85.8312 16.507V18.8722H85.094V15.5488H85.789ZM90.2538 18.9334C89.7871 18.9334 89.4081 18.7845 89.1182 18.4868C88.8278 18.189 88.6829 17.7919 88.6829 17.2967V17.2044C88.6829 16.8727 88.7458 16.5762 88.8721 16.3154C88.9891 16.0651 89.1738 15.8537 89.4048 15.7056C89.6336 15.5602 89.8988 15.4845 90.1689 15.4876C90.6163 15.4876 90.9613 15.6318 91.2052 15.9203C91.4488 16.2093 91.5705 16.6177 91.5705 17.1461V17.4472H89.4259C89.4483 17.7215 89.5386 17.9383 89.6972 18.098C89.8562 18.2578 90.0559 18.3379 90.2965 18.3379C90.6341 18.3379 90.9095 18.1995 91.1216 17.9227L91.5192 18.3069C91.3875 18.5058 91.2058 18.6655 90.9927 18.7694C90.7732 18.8785 90.5272 18.9334 90.2538 18.9334ZM90.166 16.086C89.9639 16.086 89.8007 16.1581 89.6761 16.3015C89.5518 16.4445 89.4723 16.6441 89.4379 16.9004H90.8424V16.845C90.8262 16.5951 90.7608 16.4064 90.6452 16.2785C90.5301 16.1506 90.3702 16.0864 90.166 16.0864V16.086ZM93.4998 17.8032L94.167 15.5488H94.9527L93.648 19.3758C93.448 19.9348 93.1084 20.2145 92.6292 20.2145C92.5089 20.2126 92.3895 20.1939 92.2742 20.1592V19.5817L92.4138 19.5909C92.5998 19.5909 92.7397 19.5566 92.8338 19.4882C92.9278 19.4194 93.0023 19.3041 93.0566 19.1427L93.163 18.8567L92.0104 15.5488H92.8052L93.4998 17.8032Z" fill="#C0CAD7"/>
</g>
<defs>
<clipPath id="clip0_3298_2577">
<rect width="111" height="26" fill="white"/>
</clipPath>
</defs>
</svg>
