<svg width="165" height="37" viewBox="0 0 165 37" fill="none" xmlns="http://www.w3.org/2000/svg">
<g clip-path="url(#clip0_7_49)">
<g clip-path="url(#clip1_7_49)">
<g clip-path="url(#clip2_7_49)">
<g clip-path="url(#clip3_7_49)">
<g clip-path="url(#clip4_7_49)">
<g clip-path="url(#clip5_7_49)">
<path d="M25.8922 23.6945V26.6665H14.9552C14.675 26.6665 14.3741 26.6338 14.0526 26.5682C13.731 26.5027 13.4126 26.4029 13.0974 26.2687C12.7822 26.1314 12.4813 25.9536 12.1947 25.7351C11.905 25.5167 11.6502 25.2546 11.4306 24.9489C11.2077 24.64 11.031 24.2811 10.9004 23.8724C10.7667 23.4636 10.6998 23.005 10.6998 22.4964V14.451C10.6998 14.1764 10.7333 13.8815 10.8001 13.5664C10.867 13.2513 10.9705 12.9392 11.1106 12.6303C11.2507 12.3214 11.4321 12.0266 11.655 11.7458C11.8811 11.4618 12.1517 11.2122 12.4669 10.9969C12.7822 10.7785 13.1451 10.6053 13.5559 10.4774C13.9698 10.3463 14.4362 10.2808 14.9552 10.2808H25.8922V13.2528H14.9552C14.5604 13.2528 14.2579 13.3558 14.0478 13.5617C13.8376 13.7676 13.7326 14.0719 13.7326 14.4744V22.4964C13.7326 22.877 13.8392 23.1719 14.0526 23.381C14.2659 23.59 14.5668 23.6945 14.9552 23.6945H25.8922ZM31.8144 10.2808V16.9783H42.4601V10.2808H45.4928V26.6665H42.4601V19.969H31.8144V26.6665H28.7865V10.2808H31.8144ZM65.4421 11.7785V26.6665H62.4093V22.6462H51.7541V26.6665H48.7214V18.476C48.7214 17.2779 48.9315 16.1764 49.3518 15.1717C49.7721 14.167 50.3548 13.3027 51.0998 12.5788C51.8481 11.855 52.73 11.2902 53.7457 10.8846C54.7646 10.4821 55.8774 10.2808 57.0841 10.2808H63.9138C64.1239 10.2808 64.3229 10.3183 64.5108 10.3932C64.6954 10.4712 64.8578 10.5788 64.9979 10.7161C65.138 10.8534 65.2479 11.0125 65.3275 11.1935C65.4039 11.3776 65.4421 11.5726 65.4421 11.7785ZM51.7541 18.476V19.6742H62.4093V13.2528H57.0841C56.9886 13.2528 56.7912 13.2653 56.4919 13.2903C56.1926 13.3183 55.8472 13.3854 55.4555 13.4915C55.0639 13.5976 54.65 13.7614 54.2138 13.9829C53.7776 14.2045 53.378 14.5087 53.015 14.8956C52.6488 15.2856 52.3464 15.7724 52.1076 16.3558C51.8719 16.9362 51.7541 17.6429 51.7541 18.476ZM72.0186 10.2808V26.6665H68.9859V10.2808H72.0186ZM92.2688 10.2808V25.3982C92.2688 25.6103 92.229 25.8085 92.1494 25.9926C92.0666 26.1767 91.9567 26.3342 91.8198 26.4653C91.6861 26.5994 91.5253 26.704 91.3374 26.7789C91.1496 26.8569 90.9522 26.8959 90.7452 26.8959C90.5574 26.8959 90.3679 26.8615 90.1769 26.7929C89.9858 26.7242 89.8171 26.6135 89.6706 26.4606L78.5951 15.1249V26.6665H75.5624V11.5492C75.5624 11.2434 75.65 10.9673 75.8251 10.7208C76.0002 10.4743 76.2231 10.2902 76.4937 10.1685C76.7803 10.0531 77.0764 10.0234 77.382 10.0796C77.6845 10.1389 77.944 10.2777 78.1605 10.4961L89.2408 21.8224V10.2808H92.2688ZM114.062 10.2808H117.142L114.343 25.6369C114.28 25.9426 114.14 26.2063 113.923 26.4278C113.703 26.6494 113.439 26.7898 113.13 26.8491C112.812 26.9021 112.511 26.8678 112.228 26.7461C111.941 26.6244 111.717 26.4341 111.554 26.1751L106.004 17.2404L100.445 26.1751C100.312 26.3966 100.13 26.5682 99.9008 26.6899C99.6715 26.8116 99.4248 26.8725 99.1605 26.8725C98.7943 26.8725 98.4712 26.7586 98.191 26.5308C97.9108 26.2999 97.7404 26.0019 97.6799 25.6369L94.8573 10.2808H97.9379L99.9438 21.1017L104.725 13.6272C104.855 13.4088 105.035 13.2372 105.264 13.1124C105.493 12.9907 105.74 12.9299 106.004 12.9299C106.269 12.9299 106.514 12.9907 106.74 13.1124C106.966 13.2372 107.152 13.4088 107.299 13.6272L112.056 21.1017L114.062 10.2808ZM133.476 16.9783V19.969H123.9V16.9783H133.476ZM134.837 23.6945V26.6665H123.9C123.483 26.6665 123.024 26.5948 122.525 26.4512C122.028 26.3046 121.568 26.0659 121.144 25.7351C120.721 25.4044 120.367 24.9738 120.084 24.4434C119.801 23.913 119.659 23.264 119.659 22.4964V11.7785C119.659 11.5726 119.697 11.3776 119.774 11.1935C119.853 11.0125 119.96 10.8534 120.094 10.7161C120.231 10.5788 120.393 10.4712 120.581 10.3932C120.765 10.3183 120.968 10.2808 121.187 10.2808H134.837V13.2528H122.687V22.4964C122.687 22.8833 122.792 23.1797 123.002 23.3856C123.212 23.5916 123.52 23.6945 123.924 23.6945H134.837ZM154.452 22.4964V23.0674C154.452 23.4324 154.387 23.824 154.256 24.2421C154.129 24.6634 153.919 25.0518 153.626 25.4075C153.336 25.7663 152.957 26.0659 152.489 26.3061C152.024 26.5464 151.454 26.6665 150.779 26.6665H139.269C139.053 26.6665 138.85 26.6291 138.663 26.5542C138.475 26.4762 138.314 26.3701 138.18 26.2359C138.043 26.1049 137.935 25.9473 137.855 25.7632C137.779 25.5823 137.741 25.3841 137.741 25.1688V11.7785C137.741 11.5726 137.779 11.3776 137.855 11.1935C137.935 11.0125 138.043 10.8534 138.18 10.7161C138.314 10.5788 138.475 10.4712 138.663 10.3932C138.85 10.3183 139.053 10.2808 139.269 10.2808H149.413C149.786 10.2808 150.185 10.3463 150.612 10.4774C151.042 10.6053 151.442 10.8128 151.811 11.0999C152.18 11.3838 152.487 11.7551 152.733 12.2138C152.975 12.6693 153.096 13.2294 153.096 13.894V14.451C153.096 14.9783 153.006 15.5446 152.828 16.1499C152.65 16.7552 152.363 17.3278 151.968 17.8676C152.309 18.0735 152.629 18.3216 152.928 18.6117C153.228 18.9019 153.49 19.2373 153.717 19.618C153.943 19.9987 154.121 20.4293 154.251 20.9098C154.385 21.3872 154.452 21.916 154.452 22.4964ZM151.419 23.044V22.4964C151.419 22.1064 151.357 21.7569 151.233 21.448C151.109 21.1422 150.934 20.8786 150.708 20.657C150.482 20.4355 150.209 20.2654 149.891 20.1469C149.573 20.0283 149.214 19.969 148.816 19.969H141.987V16.9783H147.455C147.85 16.9783 148.207 16.919 148.525 16.8005C148.843 16.6819 149.116 16.5119 149.342 16.2903C149.568 16.0688 149.741 15.8051 149.862 15.4993C149.983 15.1905 150.044 14.841 150.044 14.451V13.894C150.044 13.4665 149.834 13.2528 149.413 13.2528H140.774V23.6945H150.779C150.833 23.6945 150.899 23.6914 150.975 23.6852C151.052 23.6758 151.122 23.6524 151.185 23.615C151.249 23.5775 151.303 23.5136 151.348 23.4231C151.395 23.3295 151.419 23.2031 151.419 23.044Z" fill="black"/>
</g>
</g>
</g>
</g>
</g>
</g>
<defs>
<clipPath id="clip0_7_49">
<rect width="164" height="36" fill="white" transform="translate(0.575806 0.474121)"/>
</clipPath>
<clipPath id="clip1_7_49">
<rect width="163.256" height="35.9421" fill="white" transform="translate(0.947632 0.50293)"/>
</clipPath>
<clipPath id="clip2_7_49">
<rect width="163.256" height="35.9421" fill="white" transform="translate(0.947632 0.50293)"/>
</clipPath>
<clipPath id="clip3_7_49">
<rect width="163.256" height="35.9421" fill="white" transform="translate(0.947632 0.50293)"/>
</clipPath>
<clipPath id="clip4_7_49">
<rect width="163.256" height="35.9421" fill="white" transform="translate(0.947632 0.50293)"/>
</clipPath>
<clipPath id="clip5_7_49">
<rect width="143.768" height="16.8439" fill="white" transform="translate(10.692 10.052)"/>
</clipPath>
</defs>
</svg>
