<svg width="164" height="37" viewBox="0 0 164 37" fill="none" xmlns="http://www.w3.org/2000/svg">
<g clip-path="url(#clip0_7_13)">
<g clip-path="url(#clip1_7_13)">
<g clip-path="url(#clip2_7_13)">
<g clip-path="url(#clip3_7_13)">
<g clip-path="url(#clip4_7_13)">
<g clip-path="url(#clip5_7_13)">
<path d="M163.628 0.029541H0.371826V36.7065H163.628V0.029541Z" fill="#BB84E8"/>
<g clip-path="url(#clip6_7_13)">
<path d="M25.3168 23.6954V26.7281H14.3798C14.0996 26.7281 13.7987 26.6947 13.4771 26.6278C13.1555 26.561 12.8371 26.4591 12.5219 26.3222C12.2067 26.1821 11.9058 26.0006 11.6193 25.7777C11.3295 25.5548 11.0748 25.2874 10.8551 24.9753C10.6322 24.6601 10.4555 24.294 10.325 23.8769C10.1913 23.4598 10.1244 22.9917 10.1244 22.4727V14.2628C10.1244 13.9826 10.1578 13.6817 10.2247 13.3602C10.2915 13.0386 10.395 12.7202 10.5351 12.405C10.6752 12.0898 10.8567 11.7889 11.0796 11.5023C11.3056 11.2126 11.5763 10.9578 11.8915 10.7382C12.2067 10.5153 12.5697 10.3386 12.9804 10.208C13.3943 10.0743 13.8608 10.0074 14.3798 10.0074H25.3168V13.0402H14.3798C13.985 13.0402 13.6825 13.1452 13.4724 13.3554C13.2622 13.5655 13.1571 13.876 13.1571 14.2867V22.4727C13.1571 22.8612 13.2638 23.1621 13.4771 23.3754C13.6905 23.5887 13.9913 23.6954 14.3798 23.6954H25.3168ZM31.239 10.0074V16.8419H41.8846V10.0074H44.9174V26.7281H41.8846V19.8937H31.239V26.7281H28.211V10.0074H31.239ZM64.8667 11.5357V26.7281H61.8339V22.6256H51.1787V26.7281H48.146V18.3702C48.146 17.1475 48.3561 16.0236 48.7764 14.9983C49.1967 13.9731 49.7793 13.0911 50.5244 12.3524C51.2726 11.6137 52.1546 11.0374 53.1703 10.6235C54.1892 10.2128 55.302 10.0074 56.5087 10.0074H63.3383C63.5485 10.0074 63.7475 10.0456 63.9353 10.1221C64.12 10.2017 64.2824 10.3115 64.4225 10.4516C64.5626 10.5917 64.6724 10.7541 64.752 10.9387C64.8284 11.1266 64.8667 11.3256 64.8667 11.5357ZM51.1787 18.3702V19.5928H61.8339V13.0402H56.5087C56.4132 13.0402 56.2158 13.0529 55.9165 13.0784C55.6172 13.107 55.2717 13.1755 54.8801 13.2837C54.4885 13.392 54.0745 13.5592 53.6383 13.7852C53.2021 14.0113 52.8025 14.3217 52.4396 14.7165C52.0734 15.1145 51.7709 15.6112 51.5321 16.2066C51.2965 16.7989 51.1787 17.52 51.1787 18.3702ZM71.4432 10.0074V26.7281H68.4104V10.0074H71.4432ZM91.6933 10.0074V25.4338C91.6933 25.6503 91.6535 25.8525 91.5739 26.0404C91.4911 26.2282 91.3813 26.389 91.2444 26.5228C91.1107 26.6597 90.9499 26.7663 90.762 26.8427C90.5742 26.9223 90.3767 26.9621 90.1698 26.9621C89.9819 26.9621 89.7925 26.9271 89.6014 26.8571C89.4104 26.787 89.2417 26.674 89.0952 26.518L78.0197 14.9506V26.7281H74.987V11.3017C74.987 10.9897 75.0745 10.7079 75.2496 10.4564C75.4247 10.2048 75.6476 10.017 75.9183 9.8928C76.2048 9.775 76.5009 9.74475 76.8066 9.80206C77.1091 9.86256 77.3686 10.0042 77.5851 10.2271L88.6654 21.785V10.0074H91.6933ZM113.486 10.0074H116.567L113.768 25.6774C113.704 25.9894 113.564 26.2585 113.348 26.4846C113.128 26.7106 112.864 26.8539 112.555 26.9144C112.236 26.9685 111.936 26.9335 111.652 26.8093C111.366 26.6851 111.141 26.4909 110.979 26.2266L105.429 17.1093L99.8698 26.2266C99.7361 26.4527 99.5546 26.6278 99.3253 26.752C99.0961 26.8762 98.8493 26.9383 98.5851 26.9383C98.2189 26.9383 97.8957 26.8221 97.6155 26.5896C97.3353 26.354 97.165 26.0499 97.1045 25.6774L94.2819 10.0074H97.3624L99.3683 21.0495L104.149 13.4223C104.28 13.1994 104.46 13.0243 104.689 12.8969C104.918 12.7727 105.165 12.7106 105.429 12.7106C105.693 12.7106 105.938 12.7727 106.165 12.8969C106.391 13.0243 106.577 13.1994 106.723 13.4223L111.48 21.0495L113.486 10.0074ZM132.9 16.8419V19.8937H123.325V16.8419H132.9ZM134.262 23.6954V26.7281H123.325C122.908 26.7281 122.449 26.6549 121.949 26.5084C121.452 26.3588 120.992 26.1152 120.569 25.7777C120.145 25.4402 119.792 25.0008 119.509 24.4595C119.225 23.9183 119.084 23.256 119.084 22.4727V11.5357C119.084 11.3256 119.122 11.1266 119.198 10.9387C119.278 10.7541 119.384 10.5917 119.518 10.4516C119.655 10.3115 119.817 10.2017 120.005 10.1221C120.19 10.0456 120.392 10.0074 120.612 10.0074H134.262V13.0402H122.112V22.4727C122.112 22.8675 122.217 23.17 122.427 23.3802C122.637 23.5903 122.944 23.6954 123.349 23.6954H134.262ZM153.877 22.4727V23.0554C153.877 23.4279 153.811 23.8275 153.681 24.2542C153.553 24.684 153.343 25.0804 153.05 25.4434C152.761 25.8095 152.382 26.1152 151.914 26.3604C151.449 26.6055 150.879 26.7281 150.204 26.7281H138.694C138.477 26.7281 138.275 26.6899 138.087 26.6135C137.899 26.5339 137.739 26.4256 137.605 26.2887C137.468 26.155 137.36 25.9942 137.28 25.8064C137.204 25.6217 137.165 25.4195 137.165 25.1998V11.5357C137.165 11.3256 137.204 11.1266 137.28 10.9387C137.36 10.7541 137.468 10.5917 137.605 10.4516C137.739 10.3115 137.899 10.2017 138.087 10.1221C138.275 10.0456 138.477 10.0074 138.694 10.0074H148.838C149.21 10.0074 149.61 10.0743 150.037 10.208C150.467 10.3386 150.866 10.5503 151.235 10.8432C151.605 11.133 151.912 11.5119 152.157 11.9799C152.399 12.4448 152.52 13.0163 152.52 13.6945V14.2628C152.52 14.8009 152.431 15.3788 152.253 15.9965C152.074 16.6142 151.788 17.1985 151.393 17.7493C151.734 17.9594 152.054 18.2126 152.353 18.5087C152.652 18.8048 152.915 19.1471 153.141 19.5355C153.367 19.9239 153.545 20.3633 153.676 20.8537C153.81 21.3408 153.877 21.8805 153.877 22.4727ZM150.844 23.0315V22.4727C150.844 22.0747 150.782 21.7181 150.658 21.4029C150.533 21.0909 150.358 20.8218 150.132 20.5958C149.906 20.3697 149.634 20.1962 149.316 20.0752C148.997 19.9542 148.639 19.8937 148.241 19.8937H141.411V16.8419H146.88C147.275 16.8419 147.631 16.7814 147.95 16.6604C148.268 16.5394 148.54 16.3658 148.766 16.1398C148.992 15.9137 149.166 15.6447 149.287 15.3326C149.408 15.0174 149.468 14.6608 149.468 14.2628V13.6945C149.468 13.2583 149.258 13.0402 148.838 13.0402H140.198V23.6954H150.204C150.258 23.6954 150.323 23.6922 150.4 23.6858C150.476 23.6763 150.546 23.6524 150.61 23.6142C150.673 23.576 150.728 23.5107 150.772 23.4184C150.82 23.3229 150.844 23.1939 150.844 23.0315Z" fill="white"/>
</g>
</g>
</g>
</g>
</g>
</g>
</g>
<defs>
<clipPath id="clip0_7_13">
<rect width="164" height="36.736" fill="white"/>
</clipPath>
<clipPath id="clip1_7_13">
<rect width="163.256" height="36.677" fill="white" transform="translate(0.371826 0.029541)"/>
</clipPath>
<clipPath id="clip2_7_13">
<rect width="163.256" height="36.677" fill="white" transform="translate(0.371826 0.029541)"/>
</clipPath>
<clipPath id="clip3_7_13">
<rect width="163.256" height="36.677" fill="white" transform="translate(0.371826 0.029541)"/>
</clipPath>
<clipPath id="clip4_7_13">
<rect width="163.256" height="36.677" fill="white" transform="translate(0.371826 0.029541)"/>
</clipPath>
<clipPath id="clip5_7_13">
<rect width="163.256" height="36.677" fill="white" transform="translate(0.371826 0.029541)"/>
</clipPath>
<clipPath id="clip6_7_13">
<rect width="143.768" height="17.1882" fill="white" transform="translate(10.1162 9.77393)"/>
</clipPath>
</defs>
</svg>
